<mxfile host="app.diagrams.net" modified="2024-04-05T04:00:52.359Z" agent="Mozilla/5.0 (Windows NT 10.0; Win64; x64) AppleWebKit/537.36 (KHTML, like Gecko) Chrome/123.0.0.0 Safari/537.36 Edg/123.0.0.0" etag="U1zZQRrkaU4P-qf3d3bl" version="24.2.2" type="github">
  <diagram name="P치gina-1" id="n3o9mjKdTbcDdczt1gTQ">
    <mxGraphModel dx="595" dy="325" grid="1" gridSize="10" guides="1" tooltips="1" connect="1" arrows="1" fold="1" page="1" pageScale="1" pageWidth="827" pageHeight="1169" math="0" shadow="0">
      <root>
        <mxCell id="0" />
        <mxCell id="1" parent="0" />
        <mxCell id="12Af9CAwo4s9CcQpRs8L-29" value="&lt;b&gt;&lt;font style=&quot;font-size: 25px;&quot;&gt;Dise침o de Estructuras&lt;/font&gt;&lt;/b&gt;" style="rounded=1;whiteSpace=wrap;html=1;" vertex="1" parent="1">
          <mxGeometry x="230" y="20" width="390" height="60" as="geometry" />
        </mxCell>
        <mxCell id="12Af9CAwo4s9CcQpRs8L-30" value="El dise침o organizacional busca definir las diferentes interrelaciones que existen dentro de la organizaci칩n con las respectivas funciones que son necesarias para lograr las salidas del sistema.&amp;nbsp;" style="text;html=1;align=center;verticalAlign=middle;whiteSpace=wrap;rounded=0;" vertex="1" parent="1">
          <mxGeometry x="186" y="90" width="456" height="50" as="geometry" />
        </mxCell>
        <mxCell id="12Af9CAwo4s9CcQpRs8L-31" value="" style="rounded=1;whiteSpace=wrap;html=1;fillColor=none;" vertex="1" parent="1">
          <mxGeometry x="192" y="10" width="450" height="130" as="geometry" />
        </mxCell>
      </root>
    </mxGraphModel>
  </diagram>
</mxfile>
